<!--?xml version="1.0" standalone="no"?-->
              <svg id="sw-js-blob-svg" viewBox="0 0 100 100" xmlns="http://www.w3.org/2000/svg" version="1.1">
                    <defs> 
                        <linearGradient id="sw-gradient" x1="0" x2="1" y1="1" y2="0">
                            <stop id="stop1" stop-color="#ffcc00" offset="0%"></stop>
                            <stop id="stop2" stop-color="#fcb001" offset="100%"></stop>
                        </linearGradient>
                    </defs>
                <path fill="url(#sw-gradient)" d="M25.7,-33.9C33,-30.1,38.3,-22.1,40.7,-13.5C43.1,-4.9,42.6,4.4,40,13.2C37.5,22.1,32.8,30.4,25.8,36.2C18.8,42,9.4,45.1,0.9,43.9C-7.7,42.8,-15.4,37.3,-20.9,31C-26.5,24.8,-29.9,17.8,-32.4,10.4C-35,3,-36.7,-4.7,-35,-11.9C-33.4,-19,-28.4,-25.6,-22,-29.7C-15.6,-33.7,-7.8,-35.2,0.7,-36.2C9.2,-37.2,18.5,-37.7,25.7,-33.9Z" width="100%" height="100%" transform="translate(50 50)" stroke-width="0" style="transition: all 0.3s ease 0s;" stroke="url(#sw-gradient)"></path>
              </svg>